<svg id="Layer_1" data-name="Layer 1" xmlns="http://www.w3.org/2000/svg" viewBox="0 0 342.83 62.97"><defs><style>.cls-1{fill:#fff;}.cls-2{fill:#192d4c;}.cls-3{fill:#777;}.cls-4{fill:#ea4e5e;}</style></defs><title>소개_logo_white ver</title><path class="cls-1" d="M104.45,44.47a5.23,5.23,0,0,1-5.21-5.21h0A5.23,5.23,0,0,1,104.45,34h28.74a5.44,5.44,0,0,0,4.32-8.75,17.21,17.21,0,0,0-13.62-6.73H95.32a17.25,17.25,0,0,0-17.2,17.2V48.2a7.68,7.68,0,0,0,7.68,7.68h31.75a5.23,5.23,0,0,1,5.21,5.22h0a5.22,5.22,0,0,1-5.21,5.21H83.37a3.89,3.89,0,0,0-3.48,5.6,17.28,17.28,0,0,0,15.43,9.62h28.57a17.25,17.25,0,0,0,17.2-17.2V51.08a6.61,6.61,0,0,0-6.6-6.61Z" transform="translate(-78.12 -18.56)"/><path class="cls-1" d="M333.76,19.73H305.24A17.27,17.27,0,0,0,288,37V65.49a17.21,17.21,0,0,0,7.37,14.09,4.36,4.36,0,0,0,6.83-3.6V61.33A5.77,5.77,0,0,1,308,55.58H331a5.77,5.77,0,0,1,5.76,5.75V74.6a5,5,0,0,0,8.27,3.85,17.18,17.18,0,0,0,5.92-13V37A17.27,17.27,0,0,0,333.76,19.73Zm-2.7,24H308.17a5.89,5.89,0,0,1-5.95-5.34,5.76,5.76,0,0,1,5.72-6.13h22.94a5.84,5.84,0,0,1,5.75,4.38A5.75,5.75,0,0,1,331.06,43.75Z" transform="translate(-78.12 -18.56)"/><path class="cls-1" d="M377.07,66.82a5.29,5.29,0,0,1-5.23-6,5.42,5.42,0,0,1,5.43-4.57h39.1A4.58,4.58,0,0,0,421,51.68v-3.8a4.75,4.75,0,0,0-4.75-4.75H377.27a5.41,5.41,0,0,1-5.43-4.57,5.29,5.29,0,0,1,5.23-6H417a2.68,2.68,0,0,0,2.47-3.76,17.25,17.25,0,0,0-15.72-10.25H375.18A17.25,17.25,0,0,0,358,35.76V64.33a17.25,17.25,0,0,0,17.2,17.2h28.57a17.26,17.26,0,0,0,15.57-9.91,3.39,3.39,0,0,0-3.08-4.8Z" transform="translate(-78.12 -18.56)"/><path class="cls-1" d="M193.8,18.56H165.24A17.26,17.26,0,0,0,148,35.76V64.33a17.26,17.26,0,0,0,17.21,17.2H193.8A17.25,17.25,0,0,0,211,64.33V35.76A17.25,17.25,0,0,0,193.8,18.56ZM179.52,65.38c-2.75-10.36-5-12.59-15.34-15.33,10.36-2.75,12.59-5,15.34-15.34,2.75,10.36,5,12.59,15.33,15.34C184.49,52.79,182.27,55,179.52,65.38Z" transform="translate(-78.12 -18.56)"/><path class="cls-2" d="M276.79,54.81H259.52A5.21,5.21,0,0,0,254.3,60V76.87A4.66,4.66,0,0,0,259,81.53h4.86A17.25,17.25,0,0,0,281,64.33V59A4.22,4.22,0,0,0,276.79,54.81Z" transform="translate(-78.12 -18.56)"/><path class="cls-3" d="M218.05,37V64.33a17.25,17.25,0,0,0,17.2,17.2h2.81a6.71,6.71,0,0,0,6.71-6.71V50.52c0-.05,0-.1,0-.15C233,48.15,223.35,43.29,218.05,37Z" transform="translate(-78.12 -18.56)"/><path class="cls-4" d="M263.82,18.56H235.25a17.25,17.25,0,0,0-17.2,17.2V37c5.3,6.29,14.95,11.15,26.73,13.37v-.09c0-.08,0-.16,0-.24a4.78,4.78,0,0,1,4.76-4.76h24.29a7.2,7.2,0,0,0,7.2-7.2V35.76A17.25,17.25,0,0,0,263.82,18.56Z" transform="translate(-78.12 -18.56)"/></svg>