<?xml version="1.0" encoding="utf-8"?>
<!-- Generator: Adobe Illustrator 22.1.0, SVG Export Plug-In . SVG Version: 6.00 Build 0)  -->
<svg version="1.1" id="Layer_1" xmlns="http://www.w3.org/2000/svg" xmlns:xlink="http://www.w3.org/1999/xlink" x="0px" y="0px"
	 viewBox="0 0 500 100" style="enable-background:new 0 0 500 100;" xml:space="preserve">
<style type="text/css">
	.st0{fill:#192D4C;stroke:#FFFFFF;stroke-miterlimit:10;}
	.st1{fill:#777777;stroke:#FFFFFF;stroke-miterlimit:10;}
	.st2{fill:#EA4E5E;stroke:#FFFFFF;stroke-miterlimit:10;}
</style>
<path class="st0" d="M104.5,44.5c-2.9,0-5.2-2.3-5.2-5.2v0c0-2.9,2.3-5.2,5.2-5.2l28.7,0c4.5,0,7.1-5.2,4.3-8.7
	c-3.2-4.1-8.1-6.7-13.6-6.7H95.3c-9.5,0-17.2,7.7-17.2,17.2v12.4c0,4.2,3.4,7.7,7.7,7.7h31.8c2.9,0,5.2,2.3,5.2,5.2v0
	c0,2.9-2.3,5.2-5.2,5.2H83.4c-2.9,0-4.8,3-3.5,5.6c2.8,5.7,8.7,9.6,15.4,9.6h28.6c9.5,0,17.2-7.7,17.2-17.2V51.1
	c0-3.6-3-6.6-6.6-6.6H104.5z"/>
<path class="st0" d="M333.8,19.7h-28.5c-9.5,0-17.2,7.8-17.2,17.2v28.5c0,5.8,2.9,11,7.4,14.1c2.9,2,6.8-0.1,6.8-3.6V61.3
	c0-3.2,2.6-5.8,5.8-5.8H331c3.2,0,5.8,2.6,5.8,5.8v13.3c0,4.3,5,6.7,8.3,3.9c3.6-3.2,5.9-7.8,5.9-13V37
	C351,27.5,343.2,19.7,333.8,19.7z M331.1,43.8l-22.9,0c-3.1,0-5.7-2.3-6-5.3c-0.2-3.3,2.4-6.1,5.7-6.1l22.9,0c2.7,0,5.1,1.8,5.7,4.4
	C337.5,40.4,334.7,43.8,331.1,43.8z"/>
<path class="st0" d="M377.1,66.8c-3.1,0-5.7-2.8-5.2-6c0.4-2.7,2.7-4.6,5.4-4.6l39.1,0c2.5,0,4.6-2.1,4.6-4.6v-3.8
	c0-2.6-2.1-4.7-4.7-4.7l-38.9,0c-2.7,0-5.1-1.9-5.4-4.6c-0.4-3.2,2.1-6,5.2-6l39.9,0c1.9,0,3.3-2,2.5-3.8c-2.7-6-8.7-10.2-15.7-10.2
	h-28.6c-9.5,0-17.2,7.7-17.2,17.2v28.6c0,9.5,7.7,17.2,17.2,17.2h28.6c6.9,0,12.8-4.1,15.6-9.9c1.1-2.2-0.6-4.8-3.1-4.8H377.1z"/>
<path class="st0" d="M193.8,18.6h-28.6c-9.5,0-17.2,7.7-17.2,17.2v28.6c0,9.5,7.7,17.2,17.2,17.2h28.6c9.5,0,17.2-7.7,17.2-17.2
	V35.8C211,26.3,203.3,18.6,193.8,18.6z M179.5,65.4c-2.7-10.4-5-12.6-15.3-15.3c10.4-2.7,12.6-5,15.3-15.3
	c2.7,10.4,5,12.6,15.3,15.3C184.5,52.8,182.3,55,179.5,65.4z"/>
<g>
	<path class="st0" d="M276.8,54.8h-17.3c-2.9,0-5.2,2.3-5.2,5.2v16.8c0,2.6,2.1,4.7,4.7,4.7h4.9c9.5,0,17.2-7.7,17.2-17.2V59
		C281,56.7,279.1,54.8,276.8,54.8z"/>
	<path class="st1" d="M218,37v27.3c0,9.5,7.7,17.2,17.2,17.2h2.8c3.7,0,6.7-3,6.7-6.7V50.5c0-0.1,0-0.1,0-0.1
		C233,48.2,223.4,43.3,218,37z"/>
	<path class="st2" d="M263.8,18.6h-28.6c-9.5,0-17.2,7.7-17.2,17.2V37c5.3,6.3,14.9,11.2,26.7,13.4c0,0,0-0.1,0-0.1
		c0-0.1,0-0.2,0-0.2c0-2.6,2.1-4.8,4.8-4.8h24.3c4,0,7.2-3.2,7.2-7.2v-2.3C281,26.3,273.3,18.6,263.8,18.6z"/>
</g>
</svg>
